<svg width="512" height="512" viewBox="0 0 512 512" fill="none" xmlns="http://www.w3.org/2000/svg">
  <defs>
    <linearGradient id="logoGradient" x1="256" y1="104" x2="256" y2="408" gradientUnits="userSpaceOnUse">
      <stop offset="0" stop-color="#7CB6E8"/>
      <stop offset="1" stop-color="#1E7DCC"/>
    </linearGradient>
  </defs>
  <path
    d="M300 104C301.43 104 302.16 105.73 301.16 106.75L241.83 167.52C236.25 173.24 239.12 182.93 246.81 184.69L323.38 202.21C331.5 204.07 334.01 214.27 327.67 219.63L276.3 263.08C270.38 268.08 272.13 277.5 279.46 280.06L315.54 292.67C323.42 295.42 325.48 305.47 319.28 311.07L273.41 352.45C267.8 357.51 269.31 366.56 276.1 369.54L323.44 390.3C331.28 393.73 332.82 404.27 326.26 409.85L252.26 472.71C251.32 473.51 249.94 473.37 249.17 472.41C248.4 471.46 248.52 470.07 249.45 469.26L286.13 437.4C292.53 431.83 290.85 421.53 282.91 418.26L232.97 397.68C225.14 394.45 223.44 384.07 229.82 378.47L274.51 339.26C280.26 334.21 278.66 324.93 271.65 321.99L233.86 306.14C226.07 302.87 224.3 292.52 230.38 286.79L280.12 239.88C285.84 234.49 283.44 224.88 275.88 222.83L191.63 199.95C183.58 197.76 181.63 187.5 188.23 182.6L297.39 104.54C298.16 103.99 299.12 104 300 104Z"
    fill="url(#logoGradient)"
  />
  <circle cx="238" cy="439" r="10" fill="#A7CF42"/>
</svg>
